<?xml version="1.0" encoding="UTF-8"?>
<svg version="1.1" xmlns="http://www.w3.org/2000/svg" width="400" height="400">
<path d="M0 0 C0.8325531 0.00182281 1.6651062 0.00364563 2.52288818 0.00552368 C15.33044228 0.05263623 27.75361964 0.60800181 40.3125 3.3125 C41.12170898 3.47878906 41.93091797 3.64507812 42.76464844 3.81640625 C74.99565956 10.59131711 105.53264248 25.5953215 130.3125 47.3125 C131.12589844 48.01632813 131.93929688 48.72015625 132.77734375 49.4453125 C135.32898182 51.69462378 137.8279441 53.98932764 140.3125 56.3125 C141.24835938 57.18261719 142.18421875 58.05273438 143.1484375 58.94921875 C175.92134573 90.12715346 199.11978801 139.07708931 200.48950195 184.51171875 C200.51565213 186.0077234 200.53582335 187.50384158 200.55078125 189 C200.56052979 189.81185257 200.57027832 190.62370514 200.58032227 191.4601593 C200.75185933 209.45128873 200.45914398 226.70715125 196.3125 244.3125 C196.13058105 245.13862793 195.94866211 245.96475586 195.76123047 246.81591797 C188.09294603 281.36088834 170.21983515 312.49788767 146.3125 338.3125 C145.76368164 338.90659668 145.21486328 339.50069336 144.64941406 340.11279297 C113.26733028 373.68411143 65.33001456 398.24864697 19.02435303 400.41978455 C16.65385086 400.47558581 14.28518827 400.50322473 11.9140625 400.515625 C11.03962494 400.52132507 10.16518738 400.52702515 9.26425171 400.53289795 C7.42048324 400.54228705 5.57669845 400.54885748 3.73291016 400.55273438 C0.97917461 400.56235441 -1.77378535 400.59340098 -4.52734375 400.625 C-19.68566072 400.71579636 -34.48461183 399.14384934 -49.125 395.0625 C-49.89610107 394.85125488 -50.66720215 394.64000977 -51.46166992 394.42236328 C-79.87561278 386.43998506 -106.23654152 373.70917614 -128.6875 354.3125 C-129.47898437 353.63058594 -130.27046875 352.94867188 -131.0859375 352.24609375 C-142.49069512 342.19047938 -152.71574769 331.59880705 -161.6875 319.3125 C-162.10209473 318.74756836 -162.51668945 318.18263672 -162.94384766 317.60058594 C-179.62770762 294.54868905 -190.84783657 268.07919422 -196.6875 240.3125 C-196.85121094 239.59529785 -197.01492187 238.8780957 -197.18359375 238.13916016 C-202.55399089 214.055592 -202.31082254 184.3164581 -196.6875 160.3125 C-196.48882324 159.41934082 -196.29014648 158.52618164 -196.08544922 157.60595703 C-189.49633704 128.46085784 -177.09322554 100.93775965 -158.6875 77.3125 C-158.24083984 76.73886719 -157.79417969 76.16523437 -157.33398438 75.57421875 C-146.17978932 61.46209641 -133.26278199 48.84658382 -118.6875 38.3125 C-118.12691895 37.90225586 -117.56633789 37.49201172 -116.98876953 37.06933594 C-82.7217421 12.26036165 -42.10171016 -0.19220918 0 0 Z " fill="#E9E2E2" transform="translate(199.6875,-0.3125)"/>
<path d="M0 0 C3.63 0 7.26 0 11 0 C14.21428571 11.11607143 14.21428571 11.11607143 14 16 C14.78503906 16.12117188 15.57007813 16.24234375 16.37890625 16.3671875 C26.01214029 17.90377698 26.01214029 17.90377698 29.9375 19.125 C33.00646462 20.00184703 34.85335462 20.44279142 38 20 C40.56166207 17.82626993 40.56166207 17.82626993 42.8125 15 C43.99779297 13.6078125 43.99779297 13.6078125 45.20703125 12.1875 C46.09455078 11.1046875 46.09455078 11.1046875 47 10 C49.97 10.99 52.94 11.98 56 13 C57.00540847 16.90754498 56.74797168 19.79003188 56.1875 23.75 C56.11744023 26.9026895 56.08615277 29.03346978 58.32128906 31.39746094 C62.24492776 34.45321893 66.59867489 36.71479511 71 39 C71.99 39.66 72.98 40.32 74 41 C78.11791035 40.54432959 81.3322686 38.09883351 84.78125 35.9609375 C87 35 87 35 89.10546875 35.2109375 C92.2145892 36.50587014 93.92611988 38.39283642 96 41 C96.1113519 45.12002014 93.74821419 48.54190287 91.7421875 52.03515625 C90.7773876 54.58933704 90.9270167 55.4885631 92 58 C93.41739819 59.86120193 94.90512712 61.66975465 96.4375 63.4375 C99.39993335 66.85642389 101.56755031 69.68699576 103 74 C103.72445313 73.855625 104.44890625 73.71125 105.1953125 73.5625 C110.18491623 72.60449608 114.89267738 71.72392851 120 72 C124.03873106 78.36406106 124.03873106 78.36406106 123.87890625 80.98828125 C122.37179807 84.43788441 119.41156804 86.47055584 116.6171875 88.90234375 C114.74912986 90.85983275 114.74912986 90.85983275 115.09765625 93.27734375 C115.39542969 94.17582031 115.69320313 95.07429688 116 96 C116.39316406 97.20914063 116.78632813 98.41828125 117.19140625 99.6640625 C117.87773315 101.66137323 118.57311887 103.6553062 119.27148438 105.6484375 C120.2720683 108.56559179 121 110.89184852 121 114 C121.85271484 114.07347656 121.85271484 114.07347656 122.72265625 114.1484375 C127.71081129 114.63143081 132.22599578 115.47638163 137 117 C137 117.66 137 118.32 137 119 C128.75 119 120.5 119 112 119 C110.7625 115.04 110.7625 115.04 109.5 111 C99.10442978 79.25535135 78.35790487 53.37182842 48.3671875 38.12109375 C17.7292698 23.04957179 -13.22096474 21.74371939 -45.8125 31.09375 C-48.99063391 32.22879783 -51.96280527 33.5271987 -55 35 C-55.72912598 35.35223633 -56.45825195 35.70447266 -57.20947266 36.06738281 C-66.91875265 40.81396886 -75.95611037 45.68737307 -84 53 C-84.83660156 53.71929687 -85.67320313 54.43859375 -86.53515625 55.1796875 C-108.33831309 74.18756782 -124.16892242 101.86216786 -127 131 C-127.13225377 134.70966347 -127.14198025 138.41330028 -127.125 142.125 C-127.12209961 143.64782593 -127.12209961 143.64782593 -127.11914062 145.20141602 C-127.07716339 152.50953657 -126.78147838 159.72946011 -126 167 C-127.64574566 167.02688151 -129.29161413 167.04634123 -130.9375 167.0625 C-131.85402344 167.07410156 -132.77054688 167.08570313 -133.71484375 167.09765625 C-136 167 -136 167 -137 166 C-137.23427778 163.98405418 -137.41336124 161.961526 -137.5625 159.9375 C-137.64628906 158.83277344 -137.73007813 157.72804687 -137.81640625 156.58984375 C-137.87699219 155.73519531 -137.93757813 154.88054687 -138 154 C-138.99902344 153.72285156 -139.99804688 153.44570312 -141.02734375 153.16015625 C-142.33077791 152.79444451 -143.63416069 152.42854962 -144.9375 152.0625 C-145.59685547 151.88009766 -146.25621094 151.69769531 -146.93554688 151.50976562 C-151.88671875 150.11328125 -151.88671875 150.11328125 -153 149 C-153.07205511 147.31391034 -153.08386068 145.62499341 -153.0625 143.9375 C-153.05347656 143.01839844 -153.04445312 142.09929687 -153.03515625 141.15234375 C-153.02355469 140.44207031 -153.01195312 139.73179687 -153 139 C-147.63809899 136.38592128 -142.96564796 134.50771472 -137 134 C-137.05220703 132.89205078 -137.05220703 132.89205078 -137.10546875 131.76171875 C-137.30402403 124.32062307 -136.33470507 118.05970344 -134 111 C-134.74636719 110.72414063 -135.49273437 110.44828125 -136.26171875 110.1640625 C-139.96819402 108.58841395 -142.77497011 106.40296345 -146 104 C-145.88541307 102.56163249 -145.75790884 101.12429034 -145.625 99.6875 C-145.55539063 98.88699219 -145.48578125 98.08648437 -145.4140625 97.26171875 C-145 95 -145 95 -143 92 C-140.2114711 91.77892213 -137.65346819 91.71892465 -134.875 91.8125 C-133.74384766 91.83280273 -133.74384766 91.83280273 -132.58984375 91.85351562 C-130.72625873 91.88890015 -128.86304022 91.94270833 -127 92 C-126.73316406 91.12601562 -126.46632813 90.25203125 -126.19140625 89.3515625 C-125.03864716 86.10871888 -123.64588182 83.35522381 -121.9375 80.375 C-119.19453933 75.94155667 -119.19453933 75.94155667 -118 71 C-119.64067163 68.31645465 -121.56206776 65.98527338 -123.53125 63.53515625 C-125 61 -125 61 -124.87890625 58.390625 C-123.56919299 54.82820493 -121.53945347 52.79991024 -119 50 C-118.34773438 50.20496094 -117.69546875 50.40992188 -117.0234375 50.62109375 C-115.21995995 51.177033 -113.41100714 51.71544449 -111.59765625 52.23828125 C-109.65126426 52.80902777 -107.72521204 53.44992516 -105.8125 54.125 C-102.39453705 53.97309054 -101.9189061 53.29911939 -99.5625 50.9375 C-98.98242188 50.29554687 -98.40234375 49.65359375 -97.8046875 48.9921875 C-96.02929546 47.03233914 -94.18423881 45.29411166 -92.1875 43.5625 C-91.34251953 42.82193359 -91.34251953 42.82193359 -90.48046875 42.06640625 C-89 41 -89 41 -87 41 C-87.28875 40.02417969 -87.5775 39.04835937 -87.875 38.04296875 C-88.25021019 36.75787385 -88.62519862 35.47271419 -89 34.1875 C-89.37125 32.92292969 -89.7425 31.65835938 -90.125 30.35546875 C-91 27 -91 27 -91 24 C-89.390625 22.54296875 -89.390625 22.54296875 -87.25 21.1875 C-86.55390625 20.72730469 -85.8578125 20.26710938 -85.140625 19.79296875 C-83 19 -83 19 -80.9765625 19.62890625 C-78.78056468 21.15221699 -77.01004069 22.85738886 -75.125 24.75 C-73.08230827 26.62378412 -73.08230827 26.62378412 -71 28 C-67.99634696 27.92282004 -67.99634696 27.92282004 -65 26 C-63.17326114 25.13181976 -61.33921693 24.27892313 -59.5 23.4375 C-58.15421875 22.78587891 -58.15421875 22.78587891 -56.78125 22.12109375 C-54 21 -54 21 -48 20 C-48 15.05 -48 10.1 -48 5 C-40.31291759 2.4376392 -40.31291759 2.4376392 -37 3 C-35.26953125 4.86328125 -35.26953125 4.86328125 -33.8125 7.3125 C-33.07966797 8.51326172 -33.07966797 8.51326172 -32.33203125 9.73828125 C-31.89246094 10.48464844 -31.45289063 11.23101562 -31 12 C-30.01 13.485 -30.01 13.485 -29 15 C-27.65808594 14.89171875 -27.65808594 14.89171875 -26.2890625 14.78125 C-19.17477852 14.23516424 -12.13517147 13.85203561 -5 14 C-4.9175 13.360625 -4.835 12.72125 -4.75 12.0625 C-3.69745162 7.76459411 -1.85784869 4.0153504 0 0 Z " fill="#141311" transform="translate(208,48)"/>
<path d="M0 0 C3.74159819 1.50446923 7.35778907 3.2704585 11 5 C12.19882812 5.53367188 12.19882812 5.53367188 13.421875 6.078125 C17.31918485 7.87031858 19.45761336 8.96189225 21 13 C20.875 15.5 20.875 15.5 20 18 C19.38640625 18.55429688 18.7728125 19.10859375 18.140625 19.6796875 C15.40271267 22.64742458 14.22639896 25.89256478 12.875 29.625 C10.23986486 36.76013514 10.23986486 36.76013514 8 39 C5.8359375 39.4140625 5.8359375 39.4140625 3.375 39.625 C2.55773437 39.69976562 1.74046875 39.77453125 0.8984375 39.8515625 C0.27195312 39.90054688 -0.35453125 39.94953125 -1 40 C-1 40.99 -1 41.98 -1 43 C-0.175 43.433125 0.65 43.86625 1.5 44.3125 C2.325 44.869375 3.15 45.42625 4 46 C4.3125 49.1875 4.3125 49.1875 4 52 C4.60328125 51.77183594 5.2065625 51.54367188 5.828125 51.30859375 C6.62734375 51.02113281 7.4265625 50.73367187 8.25 50.4375 C9.03890625 50.14746094 9.8278125 49.85742188 10.640625 49.55859375 C13.19103452 48.95477163 14.55322229 49.1526068 17 50 C16.938125 50.886875 16.87625 51.77375 16.8125 52.6875 C16.7380219 56.04355444 16.7380219 56.04355444 18.625 58.625 C19.07875 59.40875 19.5325 60.1925 20 61 C19.08900015 64.09739947 17.26333865 65.78667988 15 68 C15.92623724 71.68869918 16.95520116 75.34320406 18 79 C18.20399414 79.74427246 18.40798828 80.48854492 18.61816406 81.25537109 C19.29825225 83.70101574 20.02037354 86.13121981 20.75 88.5625 C20.96543457 89.36026855 21.18086914 90.15803711 21.40283203 90.97998047 C22.6029824 95.203873 22.6029824 95.203873 25.76367188 97.96826172 C27.90350319 98.63335901 27.90350319 98.63335901 31 99 C31 100.65 31 102.3 31 104 C-53.81 104 -138.62 104 -226 104 C-226 103.67 -226 103.34 -226 103 C-147.6680158 101.56933946 -69.34537022 100.79592498 9 101 C8.566875 99.57107422 8.566875 99.57107422 8.125 98.11328125 C7.75375 96.85902344 7.3825 95.60476563 7 94.3125 C6.62875 93.07113281 6.2575 91.82976562 5.875 90.55078125 C5.12296543 87.4989981 4.80965101 85.11101638 5 82 C2.69 82 0.38 82 -2 82 C-1.6875 80.125 -1.6875 80.125 -1 78 C-0.01 77.34 0.98 76.68 2 76 C2.25030977 73.41619823 2.25030977 73.41619823 2 71 C0.35 70.67 -1.3 70.34 -3 70 C-3.1546875 71.8871875 -3.1546875 71.8871875 -3.3125 73.8125 C-3.64530917 76.46091096 -3.84458718 77.77394498 -5.375 80 C-7 81 -7 81 -10 81 C-9.98259766 80.02160156 -9.98259766 80.02160156 -9.96484375 79.0234375 C-9.91529006 74.2238086 -10.00586249 69.72215315 -11 65 C-11.886875 65.350625 -12.77375 65.70125 -13.6875 66.0625 C-17.12732732 67.03603604 -18.68877985 67.25289411 -22 66 C-23.875 64.4375 -23.875 64.4375 -25 62 C-24.94172082 59.22909009 -24.50311507 56.744264 -24 54 C-22.39125 53.9071875 -22.39125 53.9071875 -20.75 53.8125 C-18.74068553 53.37762623 -18.74068553 53.37762623 -17 52 C-13.95226735 45.82748527 -12.24137397 39.76688713 -14 33 C-14.66 32.01 -15.32 31.02 -16 30 C-15.77017764 24.48426333 -13.87888892 19.89885141 -11.90234375 14.78515625 C-11.0342935 12.10584963 -10.71463035 9.86077636 -10.5625 7.0625 C-10.29938315 3.65421897 -10.11970952 3.13966111 -7.75 0.375 C-4.42240216 -1.28879892 -3.51088049 -0.96407438 0 0 Z " fill="#070606" transform="translate(315,171)"/>
<path d="M0 0 C7.16339756 0.47646452 14.26863041 1.37683474 21.375 2.375 C22.24286133 2.48884033 23.11072266 2.60268066 24.00488281 2.7199707 C30.46387915 3.65851622 30.46387915 3.65851622 33.41015625 5.53515625 C37.64898135 7.93268176 42.26919397 7.76584588 47.0625 8.0625 C49.03306246 8.19165432 51.00316417 8.32809421 52.97265625 8.47265625 C53.84156494 8.52687744 54.71047363 8.58109863 55.60571289 8.63696289 C58.09798528 9.01485715 59.82529568 9.75249764 62 11 C46.01030605 12.20839792 30.93602987 11.66883365 15 10 C16.24184766 10.95695765 17.48737364 11.90914284 18.734375 12.859375 C19.42756836 13.39014648 20.12076172 13.92091797 20.83496094 14.46777344 C30.96135902 21.63435828 43.51589971 22.14317241 55.51953125 23.0234375 C56.58661819 23.10443695 57.65370514 23.1854364 58.75312805 23.26889038 C62.16812928 23.52244575 65.58376497 23.76367451 69 24 C70.70322418 24.11849304 70.70322418 24.11849304 72.44085693 24.23937988 C79.35798717 24.70941309 86.27549389 25.10926494 93.20043945 25.44482422 C95.5600504 25.56674489 97.91885355 25.70524194 100.27661133 25.85888672 C103.7499604 26.0831573 107.22238411 26.25421493 110.69921875 26.4140625 C111.74913498 26.49282623 112.79905121 26.57158997 113.88078308 26.65274048 C119.38219114 26.93007308 119.38219114 26.93007308 123.95446777 24.26054382 C125.46808169 22.23777168 126.72869524 20.17941638 128 18 C130.1953125 15.94140625 130.1953125 15.94140625 132.125 14.5625 C132.76695312 14.08941406 133.40890625 13.61632812 134.0703125 13.12890625 C140.32529878 9.46961265 149.62957327 10.06544334 156.484375 11.53125 C163.55129643 14.05123749 168.39617282 18.19173064 173.125 23.875 C178.2339152 29.77991165 183.70637253 33.09782363 191 36 C191 36.33 191 36.66 191 37 C182.53693519 37.99133514 176.89442558 35.89436907 170 31 C167.09474925 28.47113801 164.2936665 25.85357245 161.48828125 23.21484375 C156.23607023 18.53979877 151.33774642 17.47165808 144.359375 17.71484375 C138.54068606 18.41809589 134.59024059 21.53645765 131 26 C130.01 28.97 129.02 31.94 128 35 C86.09 35 44.18 35 1 35 C-0.32 32.03 -1.64 29.06 -3 26 C-6.95040363 20.43352215 -10.22636197 17.34511961 -17 16 C-23.74872982 15.14028919 -29.47232898 15.81586013 -35 20 C-37.40521237 22.93942994 -37.40521237 22.93942994 -39 26 C-39.66 26.99 -40.32 27.98 -41 29 C-41.50791521 23.66689031 -40.34625913 21.13879419 -37 17 C-29.82713334 10.13899711 -23.32568406 9.52569735 -13.6953125 9.6953125 C-5.03575981 10.40931367 -0.63596502 14.0757398 5.171875 20.2265625 C8.97018623 23.91124903 12.83694324 24.0778419 17.875 24.125 C19.25026422 24.09322822 20.62546802 24.05498128 22 24 C14.19162654 12.43766545 14.19162654 12.43766545 4 3 C3.26523438 2.44699219 2.53046875 1.89398438 1.7734375 1.32421875 C0.89558594 0.66873047 0.89558594 0.66873047 0 0 Z " fill="#B42426" transform="translate(100,233)"/>
<path d="M0 0 C0 0.66 0 1.32 0 2 C0.65742188 2.01417969 1.31484375 2.02835937 1.9921875 2.04296875 C31.5493223 3.52483052 57.86432578 19.678204 77.65234375 40.8359375 C89.83171548 54.83564676 99.97111206 72.49012924 103 91 C101.35 91 99.7 91 98 91 C97.68289063 89.99324219 97.36578125 88.98648438 97.0390625 87.94921875 C91.77560542 71.85082775 84.72622238 56.43464281 73 44 C72.53255371 43.48775879 72.06510742 42.97551758 71.58349609 42.44775391 C53.93425103 23.18832213 27.9074901 8.61446817 1.37890625 6.82299805 C-19.62381793 6.3660213 -38.8400418 7.90230818 -58 17 C-59.10601562 17.52464844 -60.21203125 18.04929687 -61.3515625 18.58984375 C-69.68811925 22.81781107 -76.81196596 28.09587817 -84 34 C-84.81339844 34.64710937 -85.62679687 35.29421875 -86.46484375 35.9609375 C-105.32725649 51.67408976 -117.8626655 77.44702306 -120.79785156 101.61523438 C-121.85079248 114.03688514 -121.30229972 126.62360972 -120 139 C-121.65 139 -123.3 139 -125 139 C-131.9019905 110.89903869 -125.24736691 81.10651331 -111.0703125 56.40625 C-94.60127696 29.31002549 -68.72686002 10.38525997 -38.05322266 2.49951172 C-25.46304198 -0.51626849 -12.87627818 -0.33287475 0 0 Z " fill="#1A1917" transform="translate(212,76)"/>
<path d="M0 0 C19.8871965 1.63148147 42.78769351 6.76903427 59 19 C59 19.66 59 20.32 59 21 C51.07685263 21.79674108 45.33919417 20.63887039 38.07543945 17.42651367 C32.86310626 15.18907895 27.67748626 13.82183794 22.125 12.6875 C21.352771 12.52862305 20.58054199 12.36974609 19.78491211 12.20605469 C-6.47563209 7.08177138 -35.70984354 9.07874796 -61 18 C-44.76562746 24.31896902 -27.24214978 26.39999587 -10 28 C-10 28.66 -10 29.32 -10 30 C-42.35531741 30.63789235 -73.63965531 25.74118823 -105 18 C-105 17.67 -105 17.34 -105 17 C-103.89269531 17.020625 -102.78539062 17.04125 -101.64453125 17.0625 C-86.77269007 16.99090132 -73.48086371 13.15459622 -59.30273438 8.95410156 C-54.91851628 7.68757848 -50.50927125 6.58464783 -46.0625 5.5625 C-44.19271484 5.13130859 -44.19271484 5.13130859 -42.28515625 4.69140625 C-36.48516082 3.47071756 -30.90111065 2.82251379 -24.9765625 2.68359375 C-24.23038666 2.66281265 -23.48421082 2.64203156 -22.71542358 2.62062073 C-20.35203492 2.5556877 -17.98854336 2.49650429 -15.625 2.4375 C-14.01431265 2.39426116 -12.40363537 2.35064523 -10.79296875 2.30664062 C-6.86208229 2.20006474 -2.93109323 2.09864208 1 2 C0.505 1.01 0.505 1.01 0 0 Z " fill="#B22527" transform="translate(166,202)"/>
<path d="M0 0 C3.63 0 7.26 0 11 0 C15.52346199 9.46739413 19.55697383 19.07877647 23.43408203 28.82446289 C24.38964739 31.22428571 25.35272297 33.62100522 26.31640625 36.01757812 C26.92752672 37.54669787 27.53822043 39.07598826 28.1484375 40.60546875 C28.43584808 41.31994675 28.72325867 42.03442474 29.01937866 42.77055359 C31 47.76996169 31 47.76996169 31 50 C27.04 50 23.08 50 19 50 C16 43.375 16 43.375 16 40 C9.4 40 2.8 40 -4 40 C-4.99 43.3 -5.98 46.6 -7 50 C-10.96 50 -14.92 50 -19 50 C-18.27465711 46.37328557 -17.58119593 43.64562626 -16.23413086 40.30151367 C-15.87383286 39.40095749 -15.51353485 38.50040131 -15.14231873 37.57255554 C-14.75375198 36.6140419 -14.36518524 35.65552826 -13.96484375 34.66796875 C-13.56672989 33.67622147 -13.16861603 32.68447418 -12.75843811 31.66267395 C-11.48883659 28.50263814 -10.21325369 25.34505643 -8.9375 22.1875 C-8.0744741 20.04247687 -7.21183927 17.89729635 -6.34960938 15.75195312 C-4.23760269 10.49946654 -2.1202292 5.24917256 0 0 Z " fill="#B81D1F" transform="translate(221,127)"/>
<path d="M0 0 C9.9 0 19.8 0 30 0 C30.11496305 6.2999753 30.21444997 12.59629476 30.2746582 18.89648438 C30.29976163 21.03821156 30.33385168 23.17985341 30.37719727 25.32128906 C30.4380315 28.4045113 30.46625181 31.48659843 30.48828125 34.5703125 C30.51408768 35.52366486 30.5398941 36.47701721 30.56648254 37.45925903 C30.56836017 41.93626384 30.47665372 45.02393961 27.59448242 48.58935547 C23.50102339 52.39276325 20.46727452 52.1731991 15.10546875 52.203125 C14.3210994 52.20882507 13.53673004 52.21452515 12.72859192 52.22039795 C11.06671499 52.2298514 9.40481928 52.2363833 7.74291992 52.24023438 C5.20783462 52.24992229 2.67356621 52.28093404 0.13867188 52.3125 C-1.47655769 52.31903197 -3.09179305 52.32428168 -4.70703125 52.328125 C-5.46240677 52.3404718 -6.21778229 52.3528186 -6.99604797 52.36553955 C-11.52552045 52.34649889 -14.39628851 51.78911641 -18 49 C-21.11343442 45.08963443 -21.33657544 42.10698944 -21.1875 37.1875 C-21.16042969 36.02605469 -21.13335937 34.86460937 -21.10546875 33.66796875 C-21.07066406 32.78753906 -21.03585938 31.90710938 -21 31 C-17.37 31 -13.74 31 -10 31 C-10 34.3 -10 37.6 -10 41 C-0.1 41 9.8 41 20 41 C20 31.1 20 21.2 20 11 C13.4 11 6.8 11 0 11 C0 7.37 0 3.74 0 0 Z " fill="#BA2426" transform="translate(165,126)"/>
<path d="M0 0 C5.56875 -0.12375 5.56875 -0.12375 11.25 -0.25 C12.4143457 -0.28641602 13.57869141 -0.32283203 14.77832031 -0.36035156 C15.70225586 -0.3703418 16.62619141 -0.38033203 17.578125 -0.390625 C18.99206543 -0.4220459 18.99206543 -0.4220459 20.43457031 -0.45410156 C23.81859343 0.14489758 24.96408926 1.26907957 27 4 C27.48583984 6.24243164 27.48583984 6.24243164 27.4609375 8.66015625 C27.45707031 9.53607422 27.45320313 10.41199219 27.44921875 11.31445312 C27.42472656 12.22130859 27.40023437 13.12816406 27.375 14.0625 C27.37371094 14.97322266 27.37242187 15.88394531 27.37109375 16.82226562 C27.28148496 23.57777256 27.28148496 23.57777256 25 27 C22.47802734 27.34057617 22.47802734 27.34057617 19.3359375 27.29296875 C18.3257959 27.28547607 17.3156543 27.2779834 16.27490234 27.27026367 C14.98793457 27.24295166 13.7009668 27.21563965 12.375 27.1875 C8.29125 27.125625 4.2075 27.06375 0 27 C0 18.09 0 9.18 0 0 Z " fill="#090909" transform="translate(168,281)"/>
<path d="M0 0 C0 0.33 0 0.66 0 1 C-0.62044189 1.05534912 -1.24088379 1.11069824 -1.88012695 1.16772461 C-4.69126637 1.42060348 -7.50187322 1.67898834 -10.3125 1.9375 C-11.77719727 2.06801758 -11.77719727 2.06801758 -13.27148438 2.20117188 C-14.67817383 2.33168945 -14.67817383 2.33168945 -16.11328125 2.46484375 C-16.97735596 2.543396 -17.84143066 2.62194824 -18.73168945 2.70288086 C-21.16086712 2.94787977 -21.16086712 2.94787977 -24 4 C-22.14834522 4.46837811 -20.29342986 4.92385941 -18.4375 5.375 C-17.40496094 5.63023437 -16.37242187 5.88546875 -15.30859375 6.1484375 C-3.42229579 8.65428413 8.15159199 9.25850575 20.25240707 9.08919907 C22.87948601 9.05367609 25.50630991 9.03359163 28.13357544 9.0173645 C35.59173614 8.96910116 43.04954906 8.89777098 50.50732422 8.80810547 C55.10227348 8.75392444 59.69702931 8.72025018 64.29224014 8.69836807 C66.01990056 8.68613136 67.74752788 8.66636037 69.47500229 8.6382103 C84.26297448 8.39926599 97.20656415 10.64076696 111 16 C107.05105687 17.31631438 103.96719659 16.35198348 100 15.5625 C93.35948942 14.34985567 86.9392442 13.71624128 80.1875 13.75 C79.09791992 13.75495483 79.09791992 13.75495483 77.98632812 13.76000977 C73.63841255 13.83308804 69.33306766 14.13006554 65.00097656 14.50219727 C58.38888154 15.01727792 51.82132767 15.16121266 45.19140625 15.16796875 C44.02222153 15.17129715 42.8530368 15.17462555 41.64842224 15.17805481 C39.19555042 15.18307836 36.74267188 15.18546457 34.28979492 15.18530273 C30.57524201 15.18749249 26.86098511 15.20570669 23.14648438 15.22460938 C-0.20691581 15.28104885 -0.20691581 15.28104885 -11 13 C-11.74596436 12.84329834 -12.49192871 12.68659668 -13.26049805 12.52514648 C-21.65553511 10.58301883 -29.87404796 7.84483982 -38 5 C-38 4.34 -38 3.68 -38 3 C-25.41561377 -0.72214241 -12.99844141 -0.31238552 0 0 Z " fill="#D82B31" transform="translate(175,216)"/>
<path d="M0 0 C3.526875 -0.0825 7.05375 -0.165 10.6875 -0.25 C11.79053467 -0.28641602 12.89356934 -0.32283203 14.0300293 -0.36035156 C18.42140239 -0.41015768 21.26170859 -0.40369629 25.171875 1.734375 C27.76379523 4.94658383 27.65771457 6.89193175 27.421875 10.875 C27 13 27 13 25.3125 15.5 C22.81876259 17.1175594 20.93785297 17.67357189 18 18 C20.39509338 20.89932357 22.31245243 21.50168276 26 22 C26 23.65 26 25.3 26 27 C22.83510673 27.51789163 21.05697503 27.7680334 18 27 C15.41307976 24.87307047 13.27507621 22.5913196 11.078125 20.06640625 C8.98657142 17.63392722 8.98657142 17.63392722 5 17 C5 20.3 5 23.6 5 27 C3.35 27 1.7 27 0 27 C0 18.09 0 9.18 0 0 Z " fill="#0D0D0D" transform="translate(234,281)"/>
<path d="M0 0 C0.78117187 -0.00386719 1.56234375 -0.00773437 2.3671875 -0.01171875 C3.17414063 -0.00011719 3.98109375 0.01148438 4.8125 0.0234375 C5.61945313 0.01183594 6.42640625 0.00023437 7.2578125 -0.01171875 C8.03898437 -0.00785156 8.82015625 -0.00398438 9.625 0 C10.33269531 0.00338379 11.04039062 0.00676758 11.76953125 0.01025391 C14.53384748 0.53550042 15.85515069 1.37575285 17.8125 3.3984375 C18.26660156 5.94213867 18.26660156 5.94213867 18.203125 8.94140625 C18.18378906 10.55112305 18.18378906 10.55112305 18.1640625 12.19335938 C18.13054687 13.31291016 18.09703125 14.43246094 18.0625 15.5859375 C18.04445313 16.71708984 18.02640625 17.84824219 18.0078125 19.01367188 C17.96062652 21.80944126 17.89480595 24.60351722 17.8125 27.3984375 C16.1625 27.3984375 14.5125 27.3984375 12.8125 27.3984375 C12.8125 24.0984375 12.8125 20.7984375 12.8125 17.3984375 C7.5325 17.3984375 2.2525 17.3984375 -3.1875 17.3984375 C-3.1875 20.6984375 -3.1875 23.9984375 -3.1875 27.3984375 C-4.8375 27.3984375 -6.4875 27.3984375 -8.1875 27.3984375 C-8.30344584 23.46118424 -8.37466464 19.52436827 -8.4375 15.5859375 C-8.47101563 14.46638672 -8.50453125 13.34683594 -8.5390625 12.19335938 C-8.55195313 11.12021484 -8.56484375 10.04707031 -8.578125 8.94140625 C-8.59907227 7.95164795 -8.62001953 6.96188965 -8.64160156 5.94213867 C-8.1875 3.3984375 -8.1875 3.3984375 -6.42480469 1.5769043 C-4.04526919 0.32351955 -2.66574561 0.01274605 0 0 Z " fill="#0C0B0B" transform="translate(275.1875,280.6015625)"/>
<path d="M0 0 C1.02802734 0.00966797 2.05605469 0.01933594 3.11523438 0.02929688 C4.72301758 0.06700195 4.72301758 0.06700195 6.36328125 0.10546875 C7.44673828 0.11900391 8.53019531 0.13253906 9.64648438 0.14648438 C12.3234153 0.18186232 14.99934963 0.23122686 17.67578125 0.29296875 C17.67578125 2.27296875 17.67578125 4.25296875 17.67578125 6.29296875 C10.74578125 6.29296875 3.81578125 6.29296875 -3.32421875 6.29296875 C-3.32421875 7.94296875 -3.32421875 9.59296875 -3.32421875 11.29296875 C3.60578125 11.29296875 10.53578125 11.29296875 17.67578125 11.29296875 C17.67578125 13.27296875 17.67578125 15.25296875 17.67578125 17.29296875 C10.74578125 17.29296875 3.81578125 17.29296875 -3.32421875 17.29296875 C-3.32421875 18.94296875 -3.32421875 20.59296875 -3.32421875 22.29296875 C3.60578125 22.29296875 10.53578125 22.29296875 17.67578125 22.29296875 C17.67578125 23.94296875 17.67578125 25.59296875 17.67578125 27.29296875 C13.7175089 27.35082522 9.75934455 27.38651592 5.80078125 27.41796875 C4.67285156 27.43472656 3.54492188 27.45148438 2.3828125 27.46875 C0.76826172 27.47841797 0.76826172 27.47841797 -0.87890625 27.48828125 C-2.37139893 27.5039917 -2.37139893 27.5039917 -3.89404297 27.52001953 C-6.32421875 27.29296875 -6.32421875 27.29296875 -8.32421875 25.29296875 C-8.77717208 21.66652371 -8.64826677 18.00695137 -8.63671875 14.35546875 C-8.65283203 13.34033203 -8.66894531 12.32519531 -8.68554688 11.27929688 C-8.68619141 10.30541016 -8.68683594 9.33152344 -8.6875 8.328125 C-8.69048096 7.43488525 -8.69346191 6.54164551 -8.6965332 5.62133789 C-8.32421875 3.29296875 -8.32421875 3.29296875 -7.13427734 1.49658203 C-4.65823145 -0.14988496 -2.95883681 -0.04904149 0 0 Z " fill="#0E0D0D" transform="translate(111.32421875,280.70703125)"/>
<path d="M0 0 C0.33 0 0.66 0 1 0 C1 1.65 1 3.3 1 5 C-83.81 5 -168.62 5 -256 5 C-256 4.67 -256 4.34 -256 4 C-179.66934688 2.60589191 -103.34386565 1.78190858 -27 2 C-27 2.33 -27 2.66 -27 3 C-13.635 3.495 -13.635 3.495 0 4 C0 2.68 0 1.36 0 0 Z " fill="#5B3E3F" transform="translate(345,270)"/>
<path d="M0 0 C1.53720703 0.01450195 1.53720703 0.01450195 3.10546875 0.02929688 C4.70068359 0.06700195 4.70068359 0.06700195 6.328125 0.10546875 C7.94654297 0.12577148 7.94654297 0.12577148 9.59765625 0.14648438 C12.2583192 0.18180291 14.91796796 0.23112676 17.578125 0.29296875 C17.578125 2.27296875 17.578125 4.25296875 17.578125 6.29296875 C10.318125 6.29296875 3.058125 6.29296875 -4.421875 6.29296875 C-4.421875 7.94296875 -4.421875 9.59296875 -4.421875 11.29296875 C2.838125 11.29296875 10.098125 11.29296875 17.578125 11.29296875 C17.578125 12.94296875 17.578125 14.59296875 17.578125 16.29296875 C10.318125 16.29296875 3.058125 16.29296875 -4.421875 16.29296875 C-4.421875 18.27296875 -4.421875 20.25296875 -4.421875 22.29296875 C2.838125 22.29296875 10.098125 22.29296875 17.578125 22.29296875 C17.578125 23.94296875 17.578125 25.59296875 17.578125 27.29296875 C13.45325662 27.37973783 9.32862116 27.4332817 5.203125 27.48046875 C4.0275 27.50560547 2.851875 27.53074219 1.640625 27.55664062 C0.51914063 27.56630859 -0.60234375 27.57597656 -1.7578125 27.5859375 C-2.79470215 27.60164795 -3.8315918 27.6173584 -4.89990234 27.63354492 C-5.73215332 27.52115479 -6.5644043 27.40876465 -7.421875 27.29296875 C-10.33539461 22.92268933 -9.78999257 18.93414714 -9.796875 13.79296875 C-9.82136719 12.83003906 -9.84585938 11.86710937 -9.87109375 10.875 C-9.87496094 9.95074219 -9.87882813 9.02648437 -9.8828125 8.07421875 C-9.89103027 7.22923828 -9.89924805 6.38425781 -9.90771484 5.51367188 C-9.421875 3.29296875 -9.421875 3.29296875 -7.73193359 1.51245117 C-4.93955581 0.03835193 -3.14713049 -0.05245217 0 0 Z " fill="#0B0B0B" transform="translate(210.421875,280.70703125)"/>
<path d="M0 0 C0.97388672 0.00064453 1.94777344 0.00128906 2.95117188 0.00195312 C3.96630859 0.01806641 4.98144531 0.03417969 6.02734375 0.05078125 C7.55584961 0.04594727 7.55584961 0.04594727 9.11523438 0.04101562 C16.69785234 0.09628984 16.69785234 0.09628984 18.96484375 2.36328125 C19.19189453 4.79345703 19.19189453 4.79345703 19.16015625 7.80859375 C19.15371094 8.88496094 19.14726562 9.96132813 19.140625 11.0703125 C19.12386719 12.19824219 19.10710937 13.32617188 19.08984375 14.48828125 C19.08082031 15.62394531 19.07179688 16.75960938 19.0625 17.9296875 C19.03887473 20.74109424 19.00593388 23.55208423 18.96484375 26.36328125 C17.31484375 26.36328125 15.66484375 26.36328125 13.96484375 26.36328125 C13.96484375 19.43328125 13.96484375 12.50328125 13.96484375 5.36328125 C11.98484375 5.36328125 10.00484375 5.36328125 7.96484375 5.36328125 C7.96484375 12.29328125 7.96484375 19.22328125 7.96484375 26.36328125 C6.31484375 26.36328125 4.66484375 26.36328125 2.96484375 26.36328125 C2.96484375 19.43328125 2.96484375 12.50328125 2.96484375 5.36328125 C1.31484375 5.36328125 -0.33515625 5.36328125 -2.03515625 5.36328125 C-2.03515625 12.29328125 -2.03515625 19.22328125 -2.03515625 26.36328125 C-4.01515625 26.36328125 -5.99515625 26.36328125 -8.03515625 26.36328125 C-8.12214125 22.59259293 -8.17554204 18.82216193 -8.22265625 15.05078125 C-8.24779297 13.97892578 -8.27292969 12.90707031 -8.29882812 11.80273438 C-8.30849609 10.77470703 -8.31816406 9.74667969 -8.328125 8.6875 C-8.34383545 7.73963623 -8.3595459 6.79177246 -8.37573242 5.81518555 C-8.03515625 3.36328125 -8.03515625 3.36328125 -6.83154297 1.55322266 C-4.44317115 -0.02885457 -2.85400204 -0.00952449 0 0 Z " fill="#080808" transform="translate(307.03515625,281.63671875)"/>
<path d="M0 0 C1.65 0 3.3 0 5 0 C5 8.58 5 17.16 5 26 C3.68 26.33 2.36 26.66 1 27 C-1.38528901 25.15370888 -3.43341719 23.35752854 -5.5625 21.25 C-6.13935547 20.69828125 -6.71621094 20.1465625 -7.31054688 19.578125 C-9.90804496 17.08548554 -12.45431772 14.54568228 -15 12 C-15.33 16.95 -15.66 21.9 -16 27 C-17.98 27 -19.96 27 -22 27 C-22 18.75 -22 10.5 -22 2 C-17 1 -17 1 -14.96362305 2.35522461 C-14.31949463 3.03077393 -13.67536621 3.70632324 -13.01171875 4.40234375 C-12.30595703 5.12744141 -11.60019531 5.85253906 -10.87304688 6.59960938 C-10.15181641 7.37111328 -9.43058594 8.14261719 -8.6875 8.9375 C-7.94693359 9.70513672 -7.20636719 10.47277344 -6.44335938 11.26367188 C-4.61515888 13.16264142 -2.80574855 15.07966811 -1 17 C-0.67 11.39 -0.34 5.78 0 0 Z " fill="#0D0D0D" transform="translate(157,281)"/>
<path d="M0 0 C4.39684652 0.76512304 8.7922654 1.53817548 13.1875 2.3125 C14.41404297 2.52583984 15.64058594 2.73917969 16.90429688 2.95898438 C25.00248535 4.39059025 33.00665134 6.06697895 41 8 C41 8.33 41 8.66 41 9 C39.88882813 9.17015625 38.77765625 9.3403125 37.6328125 9.515625 C24.79604942 11.56505871 13.9283979 13.72323181 5 24 C1.34565894 29.69350376 0.42308939 35.33634207 0 42 C-2.06834146 40.31774895 -2.92003645 39.36138567 -3.50390625 36.72265625 C-3.69942644 27.84603968 -0.91547555 20.48599394 4.95703125 13.7578125 C6.16485664 12.57212647 7.40284411 11.41570707 8.6796875 10.3046875 C9.11539063 9.87414062 9.55109375 9.44359375 10 9 C10 8.34 10 7.68 10 7 C7.74843501 5.4429172 7.74843501 5.4429172 5 3.9375 C3.31923671 2.98273307 1.64838667 2.00963683 0 1 C0 0.67 0 0.34 0 0 Z " fill="#B12224" transform="translate(44,221)"/>
<path d="M0 0 C4.00820676 1.13673606 7.52804394 2.97705047 11.21875 4.88671875 C11.95931641 5.26376953 12.69988281 5.64082031 13.46289062 6.02929688 C15.28012522 6.95550032 17.09357404 7.88912504 18.90625 8.82421875 C18.90625 12.82421875 18.90625 12.82421875 17.54296875 14.28125 C17.00285156 14.79042969 16.46273438 15.29960937 15.90625 15.82421875 C14.7014351 18.0844922 14.7014351 18.0844922 13.71875 20.51171875 C13.37457031 21.31996094 13.03039062 22.12820312 12.67578125 22.9609375 C12.29486328 23.88326172 12.29486328 23.88326172 11.90625 24.82421875 C11.78443359 23.88642578 11.78443359 23.88642578 11.66015625 22.9296875 C11.11523534 20.68602904 11.11523534 20.68602904 9.12109375 19.8125 C4.03216038 18.30240485 -0.80277372 17.30521659 -6.09375 16.82421875 C-7.34584008 22.52818465 -6.93789376 27.29178748 -5.09375 32.82421875 C-5.75375 32.82421875 -6.41375 32.82421875 -7.09375 32.82421875 C-9.64239317 28.74638968 -10.49824756 25.89624977 -9.6875 21.10546875 C-8.7327388 17.43717572 -7.36017375 13.94556682 -5.93359375 10.4375 C-5.06406566 7.73185212 -5.03596065 5.64144972 -5.09375 2.82421875 C-3.56236109 0.40623626 -2.89274913 -0.2428614 0 0 Z " fill="#E8DFDF" transform="translate(313.09375,174.17578125)"/>
<path d="M0 0 C2.64590014 -0.02684679 5.29153096 -0.04676357 7.9375 -0.0625 C8.69224609 -0.07087891 9.44699219 -0.07925781 10.22460938 -0.08789062 C12.14994313 -0.09652441 14.07535581 -0.05224333 16 0 C18.47969505 2.47969505 17.23402337 9.04387197 17.25 12.375 C17.270625 13.44234375 17.29125 14.5096875 17.3125 15.609375 C17.31765625 16.63289063 17.3228125 17.65640625 17.328125 18.7109375 C17.34214355 20.12318604 17.34214355 20.12318604 17.35644531 21.56396484 C17 24 17 24 15.79418945 25.80786133 C13.40734931 27.39378328 11.81950894 27.37280796 8.96484375 27.36328125 C7.99095703 27.36263672 7.01707031 27.36199219 6.01367188 27.36132812 C4.99853516 27.34521484 3.98339844 27.32910156 2.9375 27.3125 C1.40899414 27.31733398 1.40899414 27.31733398 -0.15039062 27.32226562 C-7.73300859 27.26699141 -7.73300859 27.26699141 -10 25 C-10.1953125 22.8359375 -10.1953125 22.8359375 -10.125 20.375 C-10.10695313 19.55773437 -10.08890625 18.74046875 -10.0703125 17.8984375 C-10.04710938 17.27195312 -10.02390625 16.64546875 -10 16 C-8.35 16 -6.7 16 -5 16 C-5 17.98 -5 19.96 -5 22 C0.28 22 5.56 22 11 22 C11 16.72 11 11.44 11 6 C7.37 6 3.74 6 0 6 C0 4.02 0 2.04 0 0 Z " fill="#121212" transform="translate(80,281)"/>
<path d="M0 0 C5.61 0 11.22 0 17 0 C17 5.28 17 10.56 17 16 C11.39 16 5.78 16 0 16 C0 10.72 0 5.44 0 0 Z " fill="#DED7D7" transform="translate(173,287)"/>
<path d="M0 0 C6.40140935 0.46555704 11.26769829 2.14711836 17 5 C16.88541307 6.43836751 16.75790884 7.87570966 16.625 9.3125 C16.55539062 10.11300781 16.48578125 10.91351563 16.4140625 11.73828125 C16 14 16 14 14 17 C11.72265625 17.765625 11.72265625 17.765625 9.0625 18.25 C8.18722656 18.42015625 7.31195313 18.5903125 6.41015625 18.765625 C4 19 4 19 1 18 C-1.61041595 13.16589639 -2.52635001 9.57931011 -2 4 C-1 1.5625 -1 1.5625 0 0 Z " fill="#DC3136" transform="translate(307,190)"/>
<path d="M0 0 C7.16339756 0.47646452 14.26863041 1.37683474 21.375 2.375 C22.24286133 2.48884033 23.11072266 2.60268066 24.00488281 2.7199707 C30.46387915 3.65851622 30.46387915 3.65851622 33.41015625 5.53515625 C37.64898135 7.93268176 42.26919397 7.76584588 47.0625 8.0625 C49.03306246 8.19165432 51.00316417 8.32809421 52.97265625 8.47265625 C53.84156494 8.52687744 54.71047363 8.58109863 55.60571289 8.63696289 C58.09798528 9.01485715 59.82529568 9.75249764 62 11 C46.01030605 12.20839792 30.93602987 11.66883365 15 10 C15 10.99 15 11.98 15 13 C14.34 12.29875 13.68 11.5975 13 10.875 C10.16260701 8.02134687 7.02282685 5.68958198 3.76953125 3.33203125 C2 2 2 2 0 0 Z " fill="#AF292B" transform="translate(100,233)"/>
<path d="M0 0 C10.65138165 -0.32440756 18.91130701 0.1987066 28 6 C28.66 5.34 29.32 4.68 30 4 C37.79496006 10.92455509 43.30485323 18.34108286 44 29 C43.43023437 28.278125 42.86046875 27.55625 42.2734375 26.8125 C30.05065874 11.69153659 18.9898939 5.20857108 0 1 C0 0.67 0 0.34 0 0 Z " fill="#AE2729" transform="translate(249,234)"/>
<path d="M0 0 C3.63 0 7.26 0 11 0 C11.04241723 2.33294775 11.04092937 4.66702567 11 7 C10 8 10 8 7.96875 8.1328125 C7.1540625 8.13023437 6.339375 8.12765625 5.5 8.125 C4.6853125 8.12757813 3.870625 8.13015625 3.03125 8.1328125 C1 8 1 8 0 7 C-0.04092937 4.66702567 -0.04241723 2.33294775 0 0 Z " fill="#181818" transform="translate(215,322)"/>
<path d="M0 0 C3.63 0 7.26 0 11 0 C11.04241723 2.33294775 11.04092937 4.66702567 11 7 C10 8 10 8 7.96875 8.1328125 C7.1540625 8.13023437 6.339375 8.12765625 5.5 8.125 C4.6853125 8.12757813 3.870625 8.13015625 3.03125 8.1328125 C1 8 1 8 0 7 C-0.04092937 4.66702567 -0.04241723 2.33294775 0 0 Z " fill="#6F6B6B" transform="translate(173,322)"/>
<path d="M0 0 C2.68143738 2.68143738 3.49156295 3.65896951 4.6875 7 C5.06455078 8.0209375 5.06455078 8.0209375 5.44921875 9.0625 C6 11 6 11 6 14 C2.37 14 -1.26 14 -5 14 C-3.35 9.38 -1.7 4.76 0 0 Z " fill="#E7D7D7" transform="translate(226,143)"/>
<path d="M0 0 C3.63 0 7.26 0 11 0 C11.33 1.65 11.66 3.3 12 5 C11.34 5 10.68 5 10 5 C10.33 6.32 10.66 7.64 11 9 C10.34 9 9.68 9 9 9 C8.67 8.34 8.34 7.68 8 7 C4.97065509 6.34227572 4.97065509 6.34227572 2 6 C2 6.99 2 7.98 2 9 C1.34 9 0.68 9 0 9 C0 6.03 0 3.06 0 0 Z " fill="#595656" transform="translate(234,321)"/>
<path d="M0 0 C5.28 0 10.56 0 16 0 C16 1.65 16 3.3 16 5 C10.72 5 5.44 5 0 5 C0 3.35 0 1.7 0 0 Z " fill="#EAE3E3" transform="translate(272,287)"/>
<path d="M0 0 C5.28 0 10.56 0 16 0 C16 1.65 16 3.3 16 5 C10.72 5 5.44 5 0 5 C0 3.35 0 1.7 0 0 Z " fill="#E9E2E2" transform="translate(239,287)"/>
<path d="M0 0 C3.63 0 7.26 0 11 0 C11 2.64 11 5.28 11 8 C10.34 8 9.68 8 9 8 C9 7.01 9 6.02 9 5 C6.36 5 3.72 5 1 5 C0.67 5.99 0.34 6.98 0 8 C0 5.36 0 2.72 0 0 Z " fill="#484646" transform="translate(115,322)"/>
<path d="M0 0 C3.63 0 7.26 0 11 0 C11 0.33 11 0.66 11 1 C8.03 1 5.06 1 2 1 C2 1.66 2 2.32 2 3 C4.97 3 7.94 3 11 3 C11 4.65 11 6.3 11 8 C7.37 8 3.74 8 0 8 C0 5.33333333 0 2.66666667 0 0 Z " fill="#262525" transform="translate(273,322)"/>
<path d="M0 0 C0.66 0 1.32 0 2 0 C2 1.98 2 3.96 2 6 C3.65 6 5.3 6 7 6 C7 4.02 7 2.04 7 0 C7.33 0 7.66 0 8 0 C8 1.98 8 3.96 8 6 C9.65 6 11.3 6 13 6 C13 4.02 13 2.04 13 0 C13.66 0 14.32 0 15 0 C15.04241723 2.33294775 15.04092937 4.66702567 15 7 C14 8 14 8 11.09375 8.1328125 C9.9078125 8.13023437 8.721875 8.12765625 7.5 8.125 C6.3140625 8.12757813 5.128125 8.13015625 3.90625 8.1328125 C1 8 1 8 0 7 C-0.04092937 4.66702567 -0.04241723 2.33294775 0 0 Z " fill="#252424" transform="translate(192,322)"/>
<path d="M0 0 C2.64 0 5.28 0 8 0 C8 1.65 8 3.3 8 5 C5.36 5 2.72 5 0 5 C0 3.35 0 1.7 0 0 Z " fill="#D2CBCB" transform="translate(217,323)"/>
<path d="M0 0 C0.33 0.99 0.66 1.98 1 3 C3.64 3 6.28 3 9 3 C9 2.01 9 1.02 9 0 C9.66 0 10.32 0 11 0 C11 2.64 11 5.28 11 8 C10.34 7.67 9.68 7.34 9 7 C9 6.34 9 5.68 9 5 C6.69 5 4.38 5 2 5 C2 5.99 2 6.98 2 8 C1.34 8 0.68 8 0 8 C0 5.36 0 2.72 0 0 Z " fill="#272626" transform="translate(254,322)"/>
<path d="M0 0 C0.66 0 1.32 0 2 0 C2 1.98 2 3.96 2 6 C4.64 6 7.28 6 10 6 C10 4.02 10 2.04 10 0 C10.33 0 10.66 0 11 0 C11.04241723 2.33294775 11.04092937 4.66702567 11 7 C10 8 10 8 7.96875 8.1328125 C7.1540625 8.13023437 6.339375 8.12765625 5.5 8.125 C4.6853125 8.12757813 3.870625 8.13015625 3.03125 8.1328125 C1 8 1 8 0 7 C-0.04092937 4.66702567 -0.04241723 2.33294775 0 0 Z " fill="#1E1E1E" transform="translate(134,322)"/>
<path d="M0 0 C12.66970387 -0.18451025 12.66970387 -0.18451025 18 1 C16.3828125 2.54296875 16.3828125 2.54296875 14 4 C11.0546875 3.92578125 11.0546875 3.92578125 7.875 3.3125 C6.82054687 3.12300781 5.76609375 2.93351563 4.6796875 2.73828125 C2 2 2 2 0 0 Z " fill="#A74042" transform="translate(249,234)"/>
<path d="M0 0 C0.66 0.33 1.32 0.66 2 1 C2 1.99 2 2.98 2 4 C1.236875 4.5775 0.47375 5.155 -0.3125 5.75 C-3.72055938 8.60325902 -4.49187663 10.87250447 -6 15 C-6.33 15 -6.66 15 -7 15 C-7.50632171 9.68362203 -6.24708376 7.17482197 -3 3 C-1.25 1.125 -1.25 1.125 0 0 Z " fill="#A72628" transform="translate(66,247)"/>
<path d="M0 0 C-3.0867491 1.02891637 -4.13934736 0.98947742 -7.23046875 0.44140625 C-8.03291016 0.30283203 -8.83535156 0.16425781 -9.66210938 0.02148438 C-10.91217773 -0.20571289 -10.91217773 -0.20571289 -12.1875 -0.4375 C-13.03248047 -0.58509766 -13.87746094 -0.73269531 -14.74804688 -0.88476562 C-16.8331891 -1.24996003 -18.91675673 -1.6241243 -21 -2 C-21 -2.33 -21 -2.66 -21 -3 C-13.47925962 -5.11520823 -6.9354746 -2.8484985 0 0 Z " fill="#D14147" transform="translate(286,232)"/>
<path d="M0 0 C2.69082872 0.17635452 5.32851446 0.61835921 8 1 C7.67 1.66 7.34 2.32 7 3 C5.35 3 3.7 3 2 3 C1.34 4.32 0.68 5.64 0 7 C-0.66 7 -1.32 7 -2 7 C-1.125 1.125 -1.125 1.125 0 0 Z " fill="#EC2A2C" transform="translate(307,190)"/>
<path d="M0 0 C0.33 0 0.66 0 1 0 C1 1.98 1 3.96 1 6 C1.66 6 2.32 6 3 6 C3 8.64 3 11.28 3 14 C1.51171875 12.85546875 1.51171875 12.85546875 0 11 C-0.29296875 8.30078125 -0.29296875 8.30078125 -0.1875 5.3125 C-0.16042969 4.31863281 -0.13335937 3.32476562 -0.10546875 2.30078125 C-0.07066406 1.54152344 -0.03585938 0.78226563 0 0 Z " fill="#A53234" transform="translate(41,249)"/>
<path d="M0 0 C0.99 0.33 1.98 0.66 3 1 C3.144375 2.093125 3.28875 3.18625 3.4375 4.3125 C3.88288104 7.93122987 3.88288104 7.93122987 5 11 C4.34 11 3.68 11 3 11 C0.84694043 7.14243493 -0.39253254 4.44870215 0 0 Z " fill="#DF8E8E" transform="translate(303,196)"/>
<path d="M0 0 C3.63 0.33 7.26 0.66 11 1 C7 3 7 3 4 3 C2.68 2.01 1.36 1.02 0 0 Z " fill="#A53E3F" transform="translate(100,233)"/>
</svg>
